<svg width="16" height="15" viewBox="0 0 16 15" fill="none" xmlns="http://www.w3.org/2000/svg">
<path fill-rule="evenodd" clip-rule="evenodd" d="M15.8173 1.47896C15.6954 1.35149 15.5513 1.28774 15.3846 1.28774H3.83656C3.83006 1.24084 3.81564 1.15538 3.79322 1.03129C3.77079 0.907138 3.75321 0.808252 3.74037 0.734387C3.72748 0.660839 3.70356 0.571891 3.66824 0.46793C3.63297 0.363899 3.59131 0.281646 3.54326 0.221419C3.49526 0.160875 3.43117 0.109036 3.35102 0.0653016C3.27093 0.0218494 3.17953 0 3.07701 0H0.615504C0.448729 0 0.304519 0.0638567 0.182738 0.191147C0.060924 0.318579 0 0.469586 0 0.643959C0 0.818331 0.060924 0.969268 0.182738 1.0967C0.30462 1.22417 0.448864 1.28785 0.615504 1.28785H2.57682L4.27865 9.56863C4.26592 9.59542 4.20022 9.72274 4.08157 9.95093C3.96299 10.1791 3.86845 10.3786 3.798 10.5496C3.72751 10.7208 3.69225 10.8532 3.69225 10.9471C3.69225 11.1215 3.75317 11.2724 3.87492 11.4001C3.99687 11.5272 4.14104 11.5911 4.30772 11.5911H4.92309H13.5385H14.1535C14.3201 11.5911 14.4644 11.5272 14.5862 11.4001C14.7081 11.2725 14.7689 11.1215 14.7689 10.9471C14.7689 10.7727 14.7081 10.6217 14.5862 10.4943C14.4644 10.367 14.3202 10.3031 14.1535 10.3031H5.30756C5.46147 9.98103 5.53839 9.76662 5.53839 9.65928C5.53839 9.592 5.53037 9.51817 5.51431 9.43786C5.49824 9.35754 5.47905 9.26852 5.45662 9.17112C5.43415 9.07413 5.41981 9.002 5.41341 8.95498L15.4521 7.7275C15.6122 7.70724 15.7437 7.63539 15.8463 7.51113C15.9488 7.38715 16 7.24463 16 7.08355V1.93191C15.9999 1.75754 15.9392 1.6066 15.8173 1.47896ZM12.4595 13.6111C12.4595 13.9947 12.5911 14.3219 12.8535 14.5929C13.1159 14.8643 13.4329 15 13.8043 15C14.1751 15 14.4921 14.8643 14.7545 14.5929C15.0171 14.3219 15.1485 13.9947 15.1485 13.6111C15.1485 13.2276 15.0173 12.9004 14.7545 12.629C14.4921 12.358 14.1751 12.2222 13.8043 12.2222C13.4329 12.2222 13.1159 12.358 12.8535 12.629C12.5911 12.9004 12.4595 13.2276 12.4595 13.6111ZM3.88964 14.5929C3.627 14.3219 3.49577 13.9947 3.49577 13.6111C3.49577 13.2276 3.62714 12.9004 3.88964 12.629C4.15221 12.358 4.46913 12.2222 4.84034 12.2222C5.21137 12.2222 5.52824 12.358 5.79082 12.629C6.05357 12.9004 6.18484 13.2276 6.18484 13.6111C6.18484 13.9947 6.05346 14.3219 5.79082 14.5929C5.52828 14.8643 5.21137 15 4.84034 15C4.46909 15 4.15236 14.8643 3.88964 14.5929Z" fill="white"/>
</svg>
